PathFileType	4	(X/Y/Z)	D:\TRACE\v60_Jaco2_6-2-23\v60_baseline_4-platform.trc
DataRate	CameraRate	NumFrames	NumMarkers	Units	OrigDataRate	OrigDataStartFrame	OrigNumFrames
100.00	100.00	      37	5	mm	100.00	3251	      6500
Frame#	Time	Left_Front			Right_Front			Left_Aft			Right_Aft			Post			
		X1	Y1	Z1	X2	Y2	Z2	X3	Y3	Z3	X4	Y4	Z4	X5	Y5	Z5	

3251	32.500	-800.61975	8.96205	-638.71545	769.42883	10.17020	-644.36078	-708.68134	7.94063	496.15158	733.47394	7.00514	505.87311	-14.10316	1308.16248	-962.08667	
3252	32.510	-800.54303	8.81755	-638.83990	769.45789	10.10627	-644.33716	-708.71289	7.94131	496.13348	733.49817	7.02197	505.86084	-14.08772	1308.15930	-962.04175	
3253	32.520	-800.50647	8.78053	-638.91925	769.45367	10.06166	-644.34381	-708.71838	7.94298	496.09784	733.45837	6.99981	505.87790	-14.01560	1308.12646	-961.88977	
3254	32.530	-800.50464	8.86971	-638.86792	769.33881	10.15564	-644.41809	-708.67389	7.92176	496.12613	733.14746	7.04536	506.04041	-14.00135	1308.13538	-961.82813	
3255	32.540	-800.53571	8.99212	-638.78961	769.40912	10.24218	-644.42322	-708.68634	7.94536	496.13742	733.53064	7.01390	505.86896	-14.03600	1308.18335	-961.75378	
3256	32.550	-800.56360	9.12689	-638.73340	769.42932	10.35056	-644.42554	-708.68945	7.98083	496.13037	733.30365	7.05437	505.96103	-14.03447	1308.20410	-961.72058	
3257	32.560	-800.50964	9.01889	-638.78113	769.36371	10.34754	-644.42810	-708.64746	7.97998	496.18170	733.61273	6.95572	505.86383	-14.12977	1308.23181	-961.64191	
3258	32.570	-800.55560	8.64070	-638.91309	769.48285	10.14696	-644.35327	-708.66632	8.02334	496.15372	733.58142	6.97012	505.85852	-14.03400	1308.22900	-961.56390	
3259	32.580	-800.59174	8.61311	-638.94720	769.40936	10.01530	-644.33539	-708.71161	8.03303	496.11093	733.54388	7.04805	505.85461	-14.15456	1308.10986	-961.50085	
3260	32.590	-800.55487	8.70534	-638.88287	769.34467	10.09716	-644.35699	-708.75464	8.01304	496.07648	733.42944	6.92010	505.87595	-13.92654	1308.06506	-961.62756	
3261	32.600	-800.57043	8.85568	-638.77740	769.38940	10.20648	-644.37018	-708.70319	7.96154	496.15866	733.43573	6.92527	505.86319	-13.95790	1308.04041	-961.89471	
3262	32.610	-800.57428	8.93116	-638.73846	769.32495	10.27948	-644.42535	-708.70831	8.02786	496.16968	733.51373	7.01244	505.84851	-13.98830	1308.11267	-962.10852	
3263	32.620	-800.57336	8.91173	-638.75317	769.42499	10.20290	-644.43481	-708.62598	8.01679	496.16028	733.64734	7.00679	505.83231	-13.96829	1308.18762	-962.29865	
3264	32.630	-800.56946	8.67700	-638.93622	769.46924	10.19789	-644.35175	-708.64911	8.00484	496.17230	733.59851	7.05945	505.85614	-13.95602	1308.34827	-962.39276	
3265	32.640	-800.56921	8.68229	-638.93341	769.37958	10.21443	-644.41418	-708.70184	7.97791	496.10495	733.46600	6.98099	505.89377	-13.91999	1308.12378	-962.24988	
3266	32.650	-800.53052	8.83005	-638.90521	769.35608	10.17420	-644.40118	-708.73999	7.93415	496.09567	733.87201	7.41183	505.65915	-13.94954	1308.13477	-962.11572	
3267	32.660	-800.55530	8.99092	-638.75256	769.29749	10.27232	-644.42627	-708.71344	7.97957	496.12775	733.28143	6.83590	505.59027	-13.91934	1308.17529	-961.97424	
3268	32.670	-800.58099	8.93517	-638.67957	769.44495	10.29107	-644.37726	-708.66431	8.01280	496.16440	733.34961	6.94515	505.56299	-14.05546	1308.21460	-961.63885	
3269	32.680	-800.59564	8.81022	-638.79803	769.43237	10.30706	-644.43066	-708.68213	8.01200	496.13815	733.51868	7.07079	505.58142	-14.13587	1308.14709	-961.40253	
3270	32.690	-800.57135	8.75985	-638.91687	769.44440	10.25306	-644.41553	-708.70825	8.00312	496.12961	733.43231	7.00642	505.54459	-14.02039	1308.07605	-961.28979	
3271	32.700	-800.55981	8.74207	-638.91870	769.41882	10.15762	-644.40656	-708.74475	7.97737	496.09305	733.23883	6.88182	505.58414	-14.08670	1308.01892	-961.28906	
3272	32.710	-800.59692	8.78721	-638.80023	769.45551	10.11901	-644.35706	-708.69501	7.93293	496.15918	733.26349	6.83242	505.62778	-14.00247	1307.99121	-961.44684	
3273	32.720	-800.60992	8.80706	-638.69525	769.31549	10.21102	-644.35712	-708.70184	8.00473	496.16611	733.30249	6.86822	505.57852	-13.96383	1308.05151	-961.84424	
3274	32.730	-800.60022	8.83983	-638.77283	769.44257	10.23161	-644.40802	-708.68634	8.02416	496.14209	733.43311	7.00969	505.55688	-13.89914	1308.14099	-962.23779	
3275	32.740	-800.59589	8.84275	-638.87476	769.46649	10.24929	-644.39178	-708.68042	8.01754	496.11194	733.44995	7.01614	505.54593	-13.92360	1308.20276	-962.40833	
3276	32.750	-800.56781	8.80193	-638.93500	769.40692	10.23020	-644.42426	-708.73108	7.97977	496.12033	733.28833	6.88014	505.55032	-13.87295	1308.20129	-962.45026	
3277	32.760	-800.55835	8.73737	-638.92078	769.39862	10.20153	-644.37598	-708.73346	7.93880	496.13330	733.21307	6.83811	505.62924	-13.83980	1308.15027	-962.42456	
3278	32.770	-800.58911	8.75202	-638.84619	769.44574	10.15581	-644.35480	-708.70898	7.95687	496.13593	733.19995	6.81716	505.62799	-13.88514	1308.05981	-962.27570	
3279	32.780	-800.62775	8.85338	-638.73840	769.45935	10.17550	-644.32727	-708.67224	8.01592	496.12207	733.28949	6.89522	505.57660	-13.99978	1308.10181	-962.14789	
3280	32.790	-800.60126	8.96296	-638.75232	769.41711	10.26856	-644.38837	-708.66003	8.01111	496.15604	733.48590	7.02739	505.55923	-14.01746	1308.17908	-961.95837	
3281	32.800	-800.58191	8.82924	-638.78552	769.38019	10.27972	-644.41345	-708.68903	8.04066	496.12595	733.45337	6.99834	505.57635	-14.07410	1308.18542	-961.62750	
3282	32.810	-800.55609	8.77228	-638.88184	769.33826	10.22241	-644.45990	-708.72095	7.98924	496.15323	733.36072	6.91936	505.53943	-14.14817	1308.12402	-961.47772	
3283	32.820	-800.58453	8.71914	-638.86395	769.31647	10.20366	-644.40796	-708.74847	7.94817	496.17825	733.46136	6.94969	505.95004	-14.11965	1308.11597	-961.38837	
3284	32.830	-800.63013	8.81838	-638.79974	769.30695	10.22404	-644.40460	-708.78015	8.03021	496.12360	733.09021	6.95939	506.03101	-14.08275	1308.14221	-961.41254	
3285	32.840	-800.57477	9.00794	-638.75439	769.34186	10.24921	-644.38416	-708.70441	8.02261	496.17014	733.49585	6.95617	505.84824	-14.16570	1308.20715	-961.59424	
3286	32.850	-800.54871	8.87606	-638.80609	769.35608	10.28230	-644.44122	-708.70056	8.03118	496.14615	733.59875	7.00756	505.81720	-14.13341	1308.24792	-961.71063	
3287	32.860	-800.59662	8.78413	-638.79431	769.45117	10.25546	-644.41608	-708.70569	8.02765	496.16296	733.61353	7.03168	505.85950	-14.04916	1308.24451	-961.91479	
